<svg height="512" viewBox="0 0 512 512" width="512" xmlns="http://www.w3.org/2000/svg"><g><g fill="#57a4ff"><path d="m256 16c-132.55 0-240 107.45-240 240s107.45 240 240 240 240-107.45 240-240-107.45-240-240-240zm0 448c-114.88 0-208-93.12-208-208s93.12-208 208-208 208 93.12 208 208-93.12 208-208 208z"/><path d="m416.52 197.57a240.032 240.032 0 0 0 -321.04 0 12.015 12.015 0 0 0 -.48 17.43l.01.01a11.982 11.982 0 0 0 16.48.46 215.973 215.973 0 0 1 289.02 0 11.982 11.982 0 0 0 16.48-.46l.01-.01a12.015 12.015 0 0 0 -.48-17.43z"/><path d="m376.74 237.15a184.016 184.016 0 0 0 -241.48 0 12 12 0 0 0 15.73 18.13 160.005 160.005 0 0 1 210.02 0 12 12 0 0 0 15.73-18.13z"/><path d="m336.63 276.58a128.027 128.027 0 0 0 -161.26 0 12.044 12.044 0 0 0 -4.46 9.37 11.983 11.983 0 0 0 19.51 9.32 104.044 104.044 0 0 1 131.16 0 12 12 0 1 0 15.05-18.69z"/><circle cx="256" cy="336" r="40"/></g><g fill="#004fac"><path d="m421.87 191.621a247.522 247.522 0 0 0 -165.87-63.621 247.534 247.534 0 0 0 -165.87 63.621 20.007 20.007 0 0 0 26.717 29.789 207.978 207.978 0 0 1 278.306 0 19.971 19.971 0 0 0 27.493-.742l.009-.009a20.019 20.019 0 0 0 -.785-29.038zm-10.529 17.724-.008.009a3.972 3.972 0 0 1 -5.471.167 223.553 223.553 0 0 0 -149.862-57.521 223.558 223.558 0 0 0 -149.861 57.521 4 4 0 0 1 -6.647-3.1 4.023 4.023 0 0 1 1.342-2.9 232.033 232.033 0 0 1 310.332 0 4.023 4.023 0 0 1 1.342 2.9 3.962 3.962 0 0 1 -1.167 2.924z"/><path d="m382 231.117a192.019 192.019 0 0 0 -251.99 0 20 20 0 0 0 26.234 30.2 152.02 152.02 0 0 1 199.521 0 20 20 0 0 0 26.235-30.2zm-10.328 17.9a3.973 3.973 0 0 1 -5.4.224 168.021 168.021 0 0 0 -220.53 0 4 4 0 0 1 -6.577-3.209 3.922 3.922 0 0 1 1.35-2.846 176.017 176.017 0 0 1 230.984 0 3.922 3.922 0 0 1 1.35 2.846 3.989 3.989 0 0 1 -1.182 2.987z"/><path d="m341.669 270.372a136.009 136.009 0 0 0 -171.338 0 20 20 0 1 0 25.141 31.109 96.02 96.02 0 0 1 121.057 0 19.989 19.989 0 0 0 32.536-16.573 20.093 20.093 0 0 0 -7.396-14.536zm-9.744 18.389a3.953 3.953 0 0 1 -5.3.306 112.019 112.019 0 0 0 -141.247 0 3.989 3.989 0 0 1 -6.463-3.331 4.015 4.015 0 0 1 1.5-2.942 120.008 120.008 0 0 1 151.171 0 4.014 4.014 0 0 1 1.5 2.941 3.945 3.945 0 0 1 -1.161 3.026z"/><path d="m431.36 80.64a248 248 0 1 0 -350.72 350.72 248 248 0 1 0 350.72-350.72zm-11.31 339.41a232 232 0 0 1 -328.1-328.1 232 232 0 0 1 328.1 328.1z"/><path d="m408.73 103.27a216 216 0 1 0 -305.46 305.47 216 216 0 1 0 305.46-305.47zm-152.73 352.73c-110.28 0-200-89.72-200-200s89.72-200 200-200 200 89.72 200 200-89.72 200-200 200z"/><path d="m256 288a48 48 0 1 0 48 48 48.051 48.051 0 0 0 -48-48zm0 80a32 32 0 1 1 32-32 32.036 32.036 0 0 1 -32 32z"/></g></g></svg>