<svg height="512" viewBox="0 0 512 512" width="512" xmlns="http://www.w3.org/2000/svg"><g id="Flat"><path d="m288 24-232 232 26.58 26.58 117.42 117.42 232-232v-144zm96 64a16 16 0 1 1 16-16 15.954 15.954 0 0 1 -16 16z" fill="#348fd9"/><path d="m409.7 24q-9.03 17.415-18.87 33.53a16 16 0 1 1 -17.3 26.57c-75.86 109.06-180.53 169.63-290.95 198.48l117.42 117.42 232-232v-144z" fill="#3086cd"/><path d="m463.363 128h-31.363v-16h31.536c8.605 0 16.02-6.6 16.444-15.194a16.016 16.016 0 0 0 -15.98-16.806h-72a8 8 0 0 1 -8-8 8 8 0 0 1 8-8h72a32.037 32.037 0 0 1 32 31.446c.3 17.902-14.733 32.554-32.637 32.554z" fill="#e0e0de"/><path d="m360.1 152c14.868-9.829 7.3-32.3-10.715-31.821 6.042-16.386-13.769-30.275-28.051-19.667-5.093-16.683-29.581-16.683-34.674 0-14.282-10.608-34.093 3.281-28.051 19.667-18.009-.479-25.58 21.992-10.709 31.821-14.868 9.829-7.3 32.3 10.715 31.821-6.042 16.386 13.769 30.275 28.051 19.667 5.093 16.683 29.581 16.683 34.674 0 14.282 10.608 34.093-3.281 28.051-19.667 18.009.479 25.58-21.992 10.709-31.821z" fill="#ffb531"/><path d="m104 64a54.973 54.973 0 0 0 40-40 54.973 54.973 0 0 0 40 40 54.973 54.973 0 0 0 -40 40 54.973 54.973 0 0 0 -40-40z" fill="#ffb531"/><g fill="#2d7dbf"><path d="m86.059 232h67.882v16h-67.882z" transform="matrix(.707 -.707 .707 .707 -134.558 155.147)"/><path d="m110.059 256h67.882v16h-67.882z" transform="matrix(.707 -.707 .707 .707 -144.5 179.147)"/><path d="m134.059 280h67.882v16h-67.882z" transform="matrix(.707 -.707 .707 .707 -154.441 203.147)"/><path d="m158.059 304h67.882v16h-67.882z" transform="matrix(.707 -.707 .707 .707 -164.382 227.147)"/><path d="m211.029 316h33.941v16h-33.941z" transform="matrix(.707 -.707 .707 .707 -162.323 256.118)"/><path d="m193.75 171.961h16v27.577h-16z" transform="matrix(.707 -.707 .707 .707 -72.254 197.064)"/><path d="m239 195.645h16v70.711h-16z" transform="matrix(.707 -.707 .707 .707 -90.997 242.314)"/><path d="m200 194.745h16v90.51h-16z" transform="matrix(.707 -.707 .707 .707 -108.784 217.373)"/></g><path d="m331.505 265.833h85.324v16h-85.324z" fill="#a0dde5" transform="matrix(.707 -.707 .707 .707 -84.038 344.78)"/><path d="m412.686 216h22.627v16h-22.627z" fill="#a0dde5" transform="matrix(.707 -.707 .707 .707 -34.205 365.421)"/><path d="m416 344h72v144h-72z" fill="#4d5e78"/><path d="m452 432a12 12 0 1 0 12 12 12.013 12.013 0 0 0 -12-12z" fill="#353f52"/><path d="m416 368v120h-248.89a63.874 63.874 0 0 1 -28.62-6.76l-98.17-49.08a29.524 29.524 0 0 1 13.43-55.93l3.44.02a29.52 29.52 0 0 1 12.91 3.09l89.9 44.66h32a32 32 0 0 1 0-64h69.33l15.84-8.91a117.521 117.521 0 0 1 125.27 6.34c1.96 1.38 3.87 2.82 5.75 4.32z" fill="#fec9a3"/><path d="m416 368v120h-212.67c75.39-23.68 145.47-64.83 199.11-130.57 1.96 1.38 3.87 2.82 5.75 4.32z" fill="#fec093"/><path d="m264 432h-72a8 8 0 0 1 0-16h72a8 8 0 0 1 0 16z" fill="#feb784"/></g></svg>