<svg id="Layer_3" enable-background="new 0 0 64 64" height="512" viewBox="0 0 64 64" width="512" xmlns="http://www.w3.org/2000/svg"><g><path d="m22 36h4v12h-4z" fill="#4472b2"/><path d="m16 36-10 10v16h20v-16z" fill="#2d4d83"/><path d="m16 36-10 10v11.679c.969.21 1.972.321 3 .321 7.685 0 14.01-6.168 14.887-14.113z" fill="#4472b2"/><path d="m20 62v-10h-8v10" fill="#ebf7fe"/><g><path d="m14 57h2v2h-2z" fill="#4d5d7a"/></g><path d="m54 36h4v12h-4z" fill="#4472b2"/><path d="m48 36-10 10v16h20v-16z" fill="#2d4d83"/><path d="m48 36-10 10v11.679c.969.21 1.972.321 3 .321 7.685 0 14.01-6.168 14.887-14.113z" fill="#4472b2"/><path d="m52 62v-10h-8v10" fill="#ebf7fe"/><g><path d="m46 57h2v2h-2z" fill="#4d5d7a"/></g><path d="m22 2h4v12h-4z" fill="#4472b2"/><path d="m16 2-10 10v16h20v-16z" fill="#2d4d83"/><path d="m16 2-10 10v11.679c.969.21 1.972.321 3 .321 7.685 0 14.01-6.168 14.887-14.113z" fill="#4472b2"/><path d="m20 28v-10h-8v10" fill="#ebf7fe"/><g><path d="m14 23h2v2h-2z" fill="#4d5d7a"/></g><path d="m54 2h4v12h-4z" fill="#4472b2"/><path d="m48 2-10 10v16h20v-16z" fill="#2d4d83"/><path d="m48 2-10 10v11.679c.969.21 1.972.321 3 .321 7.685 0 14.01-6.168 14.887-14.113z" fill="#4472b2"/><g><path d="m29.293 16.707-13.293-13.293-13.293 13.293-1.414-1.414 14-14c.391-.391 1.023-.391 1.414 0l14 14z" fill="#976947"/></g><g><path d="m61.293 16.707-13.293-13.293-13.293 13.293-1.414-1.414 14-14c.391-.391 1.023-.391 1.414 0l14 14z" fill="#976947"/></g><path d="m52 28v-10h-8v10" fill="#ebf7fe"/><g><path d="m46 23h2v2h-2z" fill="#4d5d7a"/></g><g><path d="m29.293 50.707-13.293-13.293-13.293 13.293-1.414-1.414 14-14c.391-.391 1.023-.391 1.414 0l14 14z" fill="#976947"/></g><g><path d="m61.293 50.707-13.293-13.293-13.293 13.293-1.414-1.414 14-14c.391-.391 1.023-.391 1.414 0l14 14z" fill="#976947"/></g></g></svg>