<svg height="512" viewBox="0 0 64 64" width="512" xmlns="http://www.w3.org/2000/svg"><g id="mobilephone-home-wifi-click-smarthome"><path d="m9 3h46v36h-46z" fill="#2488ff"/><path d="m19 39h36v-36a36 36 0 0 1 -36 36z" fill="#006df0"/><path d="m57 3h-2v36h2a4 4 0 0 0 4-4v-28a4 4 0 0 0 -4-4z" fill="#58595b"/><path d="m3 7v28a4 4 0 0 0 4 4h2v-36h-2a4 4 0 0 0 -4 4z" fill="#58595b"/><path d="m20.14 22.46 11.86-6.85 11.86 6.85 2-3.46-13.86-8-13.86 8z" fill="#ed1c24"/><path d="m23 20.808v10.192h18v-10.192l-9-5.198z" fill="#ffcd00"/><path d="m50 36a3 3 0 0 0 -3 3v-2a3 3 0 0 0 -6 0 3 3 0 0 0 -6 0v-11a3 3 0 0 0 -6 0v22s-2.925-5.066-4.985-8.654a4.01 4.01 0 0 0 -5.49-1.464l-.065.038a1.888 1.888 0 0 0 -.67 2.614l10.629 17.509a4 4 0 0 1 .581 2.076v.881h22v-.789a4 4 0 0 1 .672-2.219l.656-.984a4 4 0 0 0 .672-2.219v-15.789a3 3 0 0 0 -3-3z" fill="#ffbcab"/><g fill="#231f20"><path d="m18 6a7.948 7.948 0 0 0 -5.657 2.343 1 1 0 0 0 1.414 1.414 6 6 0 0 1 8.486 0 1 1 0 1 0 1.414-1.414 7.948 7.948 0 0 0 -5.657-2.343z"/><path d="m18 9a5.01 5.01 0 0 0 -3.532 1.458 1 1 0 1 0 1.4 1.424 3.082 3.082 0 0 1 4.256 0 1 1 0 0 0 1.4-1.424 5.01 5.01 0 0 0 -3.524-1.458z"/><circle cx="18" cy="14" r="2"/><path d="m57 2h-50a5 5 0 0 0 -5 5v28a5 5 0 0 0 5 5h9.55a2.908 2.908 0 0 0 .39 1.05l10.62 17.51a2.967 2.967 0 0 1 .44 1.56v.88a1 1 0 0 0 2 0v-.88a4.982 4.982 0 0 0 -.73-2.6l-10.62-17.5a.882.882 0 0 1 -.11-.69.935.935 0 0 1 .49-.58 3 3 0 0 1 4.12 1.09c2.06 3.59 4.98 8.66 4.98 8.66a1.022 1.022 0 0 0 1.13.47 1 1 0 0 0 .74-.97v-22a2 2 0 0 1 4 0v16a1 1 0 0 0 2 0v-5a2 2 0 0 1 4 0v5a1 1 0 0 0 2 0v-5a2 2 0 0 1 4 0v5a1 1 0 0 0 2 0v-3a2 2 0 0 1 4 0v15.79a2.97 2.97 0 0 1 -.5 1.66l-.66.99a4.959 4.959 0 0 0 -.84 2.77v.79a1 1 0 0 0 2 0v-.79a2.97 2.97 0 0 1 .5-1.66l.66-.99a4.959 4.959 0 0 0 .84-2.77v-14.79h3a5 5 0 0 0 5-5v-28a5 5 0 0 0 -5-5zm-49 36h-1a3.009 3.009 0 0 1 -3-3v-28a3.009 3.009 0 0 1 3-3h1zm20 6.27c-.75-1.31-1.64-2.85-2.46-4.27h2.46zm4-22.27a4 4 0 0 0 -4 4v4h-4v-8.62l8-4.62 8 4.62v8.62h-4v-4a4 4 0 0 0 -4-4zm-11.5-.91-.99-1.72 12.49-7.22 12.49 7.22-.99 1.72-11-6.35a1.027 1.027 0 0 0 -1 0zm33.5 16.91h-.14a4 4 0 0 0 -3.86-3 3.932 3.932 0 0 0 -2.24.69 3.964 3.964 0 0 0 -6.76-1.31 3.967 3.967 0 0 0 -3-1.38 3.906 3.906 0 0 0 -2 .56v-1.56h5a1 1 0 0 0 1-1v-8.46l1.36.79a1.013 1.013 0 0 0 1.37-.37l2-3.46a1.055 1.055 0 0 0 .1-.76 1.026 1.026 0 0 0 -.47-.61l-13.86-8a1.044 1.044 0 0 0 -1 0l-13.86 8a1.026 1.026 0 0 0 -.47.61 1.055 1.055 0 0 0 .1.76l2 3.46a1.01 1.01 0 0 0 1.37.37l1.36-.79v8.46a1 1 0 0 0 1 1h5v6h-3.74a4.994 4.994 0 0 0 -6.3-.95 2.97 2.97 0 0 0 -.98.95h-6.98v-34h44zm6-3a3.009 3.009 0 0 1 -3 3h-1v-34h1a3.009 3.009 0 0 1 3 3z"/><path d="m6 18a1 1 0 0 0 -1 1v4a1 1 0 0 0 2 0v-4a1 1 0 0 0 -1-1z"/><path d="m58 18a1 1 0 0 0 -1 1v4a1 1 0 0 0 2 0v-4a1 1 0 0 0 -1-1z"/></g></g></svg>